<svg xmlns="http://www.w3.org/2000/svg" viewBox="0 0 122 34" width="122" height="34" role="img" aria-labelledby="t d">
  <title id="t">LINKEDIN</title>
  <desc id="d">Link to LINKEDIN</desc>

  <rect x="0.6" y="0.6" width="120.8" height="32.8" fill="none" stroke="#E0DDDA" stroke-width="1.2"/>
  <line x1="1.2" y1="0.6" x2="1.2" y2="33.4" stroke="#B47825" stroke-width="2.4"/>
  <g transform="translate(13, 9)">
    <path transform="scale(0.6667)" fill="#B47825" d="M20.447 20.452h-3.554v-5.569c0-1.328-.027-3.037-1.852-3.037-1.853 0-2.136 1.445-2.136 2.939v5.667H9.351V9h3.414v1.561h.046c.477-.9 1.637-1.85 3.37-1.85 3.601 0 4.267 2.37 4.267 5.455v6.286zM5.337 7.433c-1.144 0-2.063-.926-2.063-2.065 0-1.138.92-2.063 2.063-2.063 1.14 0 2.064.925 2.064 2.063 0 1.139-.925 2.065-2.064 2.065zm1.782 13.019H3.555V9h3.564v11.452zM22.225 0H1.771C.792 0 0 .774 0 1.729v20.542C0 23.227.792 24 1.771 24h20.451C23.2 24 24 23.227 24 22.271V1.729C24 .774 23.2 0 22.222 0h.003z"/>
  </g>
  <text x="40" y="22" font-family="ui-monospace, SFMono-Regular, 'SF Mono', Menlo, Consolas, 'DejaVu Sans Mono', monospace" font-size="11" letter-spacing="2" fill="#1D1A16">LINKEDIN</text>
</svg>
